# xmcd
#
# Track frame offsets:
#	150
#	24073
#	46640
#	64360
#	89370
#	116208
#	140458
#	166463
#	188315
#	215003
#	239358
#	263618
#	292348
#	314410
#
# Disc length: 4524 seconds
#
# Revision: 0
# Processed by: cddbd v1.5.2PL0 Copyright (c) Steve Scherf et al.
# Submitted via: EasyCDDAExtractor 15.3.0.1
#
DISCID=c811aa0e
DTITLE=Madonna - Erotica
DYEAR=1992
DGENRE=Pop
TTITLE0=Erotica
TTITLE1=Fever
TTITLE2=Bye Bye Baby
TTITLE3=Deeper And Deeper
TTITLE4=Where Life Begins
TTITLE5=Bad Girl
TTITLE6=Waiting
TTITLE7=Thief Of Hearts
TTITLE8=Words
TTITLE9=Rain
TTITLE10=Why's It So Hard
TTITLE11=In This Life
TTITLE12=Did You Do It
TTITLE13=Secret Garden
EXTD=9362-45031-2\nWEA 1992 YEAR: 1992\n
EXTT0=
EXTT1=
EXTT2=
EXTT3=
EXTT4=
EXTT5=
EXTT6=
EXTT7=
EXTT8=
EXTT9=
EXTT10=
EXTT11=
EXTT12=
EXTT13=
PLAYORDER=
